# xmcd CD database file
#
# Track frame offsets:
#	150
#	4318
#	22605
#	39713
#	58457
#	78023
#	114652
#	130894
#	159974
#	164615
#	196692
#	205364
#	230181
#	251578
#	265599
#	280220
#
# Disc length: 3983 seconds
#
# Revision: 0
# Processed by: cddbd v1.5.1PL0 Copyright (c) Steve Scherf et al.
# Submitted via: CDex 1.51
#
DISCID=d80f8d10
DTITLE=Yngwie J. Malmsteen's Rising Force - I Surrender
DYEAR=1988
DGENRE=Heavy Metal
TTITLE0=Guitar Introduction
TTITLE1=Rising Force
TTITLE2=Liar
TTITLE3=Queen In Love
TTITLE4=Deja Vu
TTITLE5=You Don't Remember, I'll Never Forget
TTITLE6=Jens Johansson Keyboards Solo
TTITLE7=Crystal Ball
TTITLE8=Guitar Solo
TTITLE9=Far Beyond The Sun
TTITLE10=Acoustic Guitar Solo
TTITLE11=Dreaming (Tell Me)
TTITLE12=Don't Let It End
TTITLE13=Barry Dunaway Bass Solo
TTITLE14=Anders Johansson Drum Solo
TTITLE15=Fury
EXTD=YEAR: 1988
EXTT0=
EXTT1=
EXTT2=
EXTT3=
EXTT4=
EXTT5=
EXTT6=
EXTT7=
EXTT8=
EXTT9=
EXTT10=
EXTT11=
EXTT12=
EXTT13=
EXTT14=
EXTT15=
PLAYORDER=
